<svg width="17" height="26" viewBox="0 0 17 26" fill="none" xmlns="http://www.w3.org/2000/svg">
<path d="M8.06195 0C9.48034 0.925827 10.2464 2.54191 10.6352 4.13986C11.3584 7.19081 10.9482 10.4345 9.82135 13.3339C8.94494 15.7588 8.47873 18.3469 8.5957 20.9283C8.6896 22.5477 9.04543 24.2264 10.0685 25.5294C8.60393 24.6052 7.85767 22.9134 7.47054 21.2858C6.80829 18.3007 7.18884 15.1345 8.28599 12.296C9.14757 9.95676 9.62037 7.45933 9.54953 4.9619C9.51164 3.22063 9.15251 1.40521 8.06195 0Z" fill="#306666"/>
<path d="M1.85968 3.75439C3.04085 4.44465 3.68992 5.74772 4.05728 7.01785C4.83155 9.78709 4.42794 12.7754 3.37197 15.4178C2.54829 17.8543 2.11502 20.4885 2.53016 23.0501C2.68502 23.9414 3.01285 24.8046 3.55813 25.5327C2.26329 24.7684 1.58457 23.3121 1.24356 21.9036C0.615909 19.2809 0.988218 16.4936 1.9717 14.006C2.80857 11.6404 3.23195 9.08366 2.92389 6.57965C2.7888 5.57145 2.46427 4.58138 1.85968 3.75439Z" fill="#306666"/>
<path d="M14.3879 3.73132C15.5493 4.43311 16.2132 5.70488 16.5855 6.96842C17.2988 9.50044 17.0451 12.2351 16.177 14.6946C15.2577 17.085 14.747 19.6697 14.9628 22.2347C15.0666 23.4093 15.3829 24.5954 16.1061 25.5476C14.8179 24.7667 14.1243 23.322 13.7833 21.9052C13.3204 19.9827 13.4094 17.9531 13.8657 16.0372C14.1523 14.7786 14.7256 13.6107 15.0221 12.3537C15.5213 10.3324 15.7618 8.20396 15.3912 6.13814C15.2363 5.27492 14.9035 4.44464 14.3879 3.73132Z" fill="#306666"/>
</svg>
