<svg width="24" height="24" viewBox="0 0 24 24" fill="none" xmlns="http://www.w3.org/2000/svg">
<g clip-path="url(#clip0_236_32)">
<path d="M7.9744 10.5354H3C1.34315 10.5354 0 9.24598 0 7.6554V2.87998C0 1.2894 1.34315 -2.28882e-05 3 -2.28882e-05H7.9744C9.63125 -2.28882e-05 10.9744 1.2894 10.9744 2.87998V7.6554C10.9744 9.24598 9.63125 10.5354 7.9744 10.5354Z" fill="#4CA6A7"/>
<path d="M7.9744 23.7046H3C1.34315 23.7046 0 22.4152 0 20.8246V16.0492C0 14.4586 1.34315 13.1692 3 13.1692H7.9744C9.63125 13.1692 10.9744 14.4586 10.9744 16.0492V20.8246C10.9744 22.4152 9.63125 23.7046 7.9744 23.7046Z" fill="#4CA6A7"/>
<path d="M20.7779 10.5354H15.8035C14.1466 10.5354 12.8035 9.24598 12.8035 7.6554V2.87998C12.8035 1.2894 14.1466 -2.28882e-05 15.8035 -2.28882e-05H20.7779C22.4347 -2.28882e-05 23.7779 1.2894 23.7779 2.87998V7.6554C23.7779 9.24598 22.4347 10.5354 20.7779 10.5354Z" fill="#4CA6A7"/>
<path d="M20.7779 23.7046H15.8035C14.1466 23.7046 12.8035 22.4152 12.8035 20.8246V16.0492C12.8035 14.4586 14.1466 13.1692 15.8035 13.1692H20.7779C22.4347 13.1692 23.7779 14.4586 23.7779 16.0492V20.8246C23.7779 22.4152 22.4347 23.7046 20.7779 23.7046Z" fill="#4CA6A7"/>
</g>
<defs>
<clipPath id="clip0_236_32">
<rect width="24" height="24" fill="white"/>
</clipPath>
</defs>
</svg>
