<svg width="24" height="24" viewBox="0 0 24 24" fill="none" xmlns="http://www.w3.org/2000/svg">
<path d="M7.64843 21.8795C3.91877 21.8795 0.88501 18.8457 0.88501 15.116C0.88501 11.6444 6.22276 4.81844 6.83264 4.05218C6.98381 3.86192 7.21056 3.74985 7.45295 3.74724C7.69795 3.74463 7.9247 3.84889 8.08107 4.03394C8.12017 4.08085 9.06366 5.20157 10.2235 6.77579C10.4867 7.13546 10.4111 7.64109 10.0515 7.90433C9.69178 8.16757 9.18616 8.09199 8.92292 7.73231C8.36777 6.97648 7.85693 6.3249 7.48162 5.85315C5.67804 8.25097 2.49833 12.9293 2.49833 15.116C2.49833 17.9543 4.80753 20.2661 7.64843 20.2661C10.4893 20.2661 12.7985 17.9543 12.7985 15.116C12.7985 14.6704 13.1608 14.3081 13.6065 14.3081C14.0522 14.3081 14.4144 14.6704 14.4144 15.116C14.4118 18.8457 11.3781 21.8795 7.64843 21.8795Z" fill="#306666"/>
<path d="M8.27396 11.0971C7.5468 12.653 7.0542 14.1126 7.0542 15.2255C7.0542 19.5155 10.531 22.9923 14.8211 22.9923C19.1111 22.9923 22.5879 19.5155 22.5879 15.2255C22.5879 14.8919 22.5384 14.5244 22.4446 14.1334C13.9167 15.017 15.0191 9.0537 8.27396 11.0971Z" fill="#4CA6A7"/>
<path d="M7.48945 13.6721C6.49384 19.9247 10.6952 22.9949 14.9774 22.9949C17.3961 22.9949 18.754 22.6796 20.1797 20.9464C13.3641 21.4859 9.00633 18.3609 7.48945 13.6721Z" fill="#4CA6A7"/>
<path d="M14.821 23.7977C10.0931 23.7977 6.24878 19.9508 6.24878 15.2255C6.24878 10.7061 13.6351 1.3494 13.9505 0.953242C14.1016 0.76298 14.3284 0.650908 14.5708 0.648302C14.8132 0.645696 15.0425 0.749949 15.1989 0.934998C15.251 0.994943 16.476 2.45188 17.9825 4.49524C18.2457 4.85491 18.1701 5.36054 17.8104 5.62378C17.4508 5.88702 16.9451 5.81143 16.6819 5.45176C15.8531 4.32583 15.1025 3.37191 14.5994 2.749C12.2694 5.81404 7.86209 12.2308 7.86209 15.2255C7.86209 19.062 10.9845 22.1844 14.821 22.1844C18.6575 22.1844 21.7799 19.062 21.7799 15.2255C21.7799 14.4514 21.4358 12.9345 19.7886 10.1119C19.5645 9.72614 19.6948 9.23354 20.0806 9.0094C20.4663 8.78525 20.9589 8.91557 21.183 9.3013C22.6712 11.8529 23.3932 13.7894 23.3932 15.2281C23.3932 19.9534 19.5463 23.7977 14.821 23.7977Z" fill="#306666"/>
</svg>
