<svg width="46" height="46" viewBox="0 0 46 46" fill="none" xmlns="http://www.w3.org/2000/svg">
<circle cx="23" cy="23" r="23" fill="#4CA6A7"/>
<path d="M12.9852 14.1676C14.1226 13.9126 15.2913 14.0282 16.4475 14.0146C22.1627 14.0282 27.8779 13.9976 33.5931 14.0316C33.7936 15.5279 33.662 17.0412 33.7247 18.5444C34.0474 18.7858 34.367 19.0307 34.6866 19.2789C34.5488 20.3229 35.0783 22.0063 33.7372 22.292C33.6902 22.9925 33.7247 23.7203 33.4866 24.3868C32.3178 27.5563 30.2624 30.2973 27.7432 32.3207C26.5713 33.2967 25.0172 32.892 23.6573 32.977C22.2191 32.8784 20.6681 33.2661 19.3176 32.5894C16.5728 30.5727 14.3889 27.6481 13.1763 24.295C12.9476 23.6285 12.9977 22.9041 12.9632 22.2069C12.8128 22.1797 12.5089 22.1185 12.3585 22.0879C12.2676 21.9281 12.0922 21.6084 12.0044 21.4486C12.0608 20.4012 11.713 18.9116 12.9632 18.592C12.982 17.1161 12.9758 15.6402 12.9852 14.1676ZM14.11 15.2423C13.4332 16.1401 15.2474 15.6708 15.2349 16.5651C15.1785 17.2385 14.4171 17.0242 14.0223 17.1773C14.0254 17.6738 14.0286 18.1737 14.0348 18.6702C15.777 18.6974 17.5222 18.66 19.2675 18.6804C19.7751 18.6736 20.3172 18.7552 20.7088 19.1497C21.7366 19.9897 21.1914 22.1253 19.8722 22.1865C17.9358 22.2852 15.9932 22.1763 14.0536 22.2342C14.0536 22.5368 14.0568 22.8395 14.0568 23.1455C16.3786 22.394 19.1202 23.3462 20.3955 25.6383C21.5611 27.4645 21.4483 29.8926 20.6775 31.8718C22.4604 31.7834 24.2432 31.9058 26.0261 31.8038C24.7352 29.1342 25.4778 25.4989 27.8779 23.8869C29.2691 22.8157 31.0363 22.7749 32.6625 23.0605C32.6437 22.8497 32.6124 22.4314 32.5936 22.224C30.7606 22.2035 28.9276 22.2512 27.0977 22.2103C26.2956 22.2954 25.4527 21.5914 25.459 20.6902C25.2616 19.6394 26.1546 18.6702 27.1008 18.694C28.9432 18.66 30.7888 18.6804 32.6343 18.6872C32.6468 18.1635 32.6562 17.6398 32.6625 17.1161C32.3993 17.1093 31.876 17.0991 31.6128 17.0923C31.5878 16.8916 31.5376 16.4903 31.5126 16.2897C31.7914 15.8306 33.1732 15.9904 32.5403 15.2389C26.399 15.164 20.2482 15.1606 14.11 15.2423ZM13.0792 19.84C13.0635 20.2379 13.0478 20.6358 13.0353 21.0371C15.4135 21.0133 17.8011 21.1799 20.1762 20.9453C20.0665 20.5542 20.2169 19.789 19.6278 19.8809C17.447 19.789 15.2631 19.8706 13.0792 19.84ZM26.5494 20.9045C28.8931 21.2037 31.2744 21.0303 33.6307 21.0031C33.615 20.6052 33.5962 20.2107 33.5806 19.8128C31.4248 19.8945 29.266 19.7958 27.1134 19.8604C26.6371 19.874 26.3018 20.4352 26.5494 20.9045ZM14.3168 24.227C15.4198 27.104 17.3092 29.6273 19.6686 31.3923C20.618 29.3451 20.2984 26.6279 18.597 25.1656C17.4282 24.0433 15.7895 23.8937 14.3168 24.227ZM26.5744 27.7807C26.3206 28.9336 26.5494 30.1204 26.8972 31.2189L26.8157 31.4807C29.3318 29.8178 31.1804 27.1142 32.3836 24.2304C31.569 24.1386 30.7386 23.9651 29.924 24.1522C28.3197 24.5909 26.963 26.0226 26.5744 27.7807Z" fill="white"/>
<path d="M16.6167 16.0823C17.7792 15.8374 18.9761 15.868 20.1448 16.0585C20.1135 16.4666 20.2106 17.2283 19.5902 17.0753C18.6314 17.1331 17.6726 17.0923 16.717 17.0549C16.6825 16.7318 16.648 16.4053 16.6167 16.0823Z" fill="white"/>
<path d="M21.6206 16.0652C22.7831 15.8476 23.9738 15.8544 25.1362 16.0822C25.0924 16.4155 25.0454 16.7522 25.0015 17.0855C23.8547 17.0718 22.6922 17.2181 21.5674 16.9188C21.5799 16.7046 21.6081 16.2795 21.6206 16.0652Z" fill="white"/>
<path d="M26.5557 16.0754C27.7244 15.834 28.9245 15.868 30.0932 16.0788C30.0493 16.4087 30.0086 16.7386 29.9679 17.0685C28.8649 17.1025 27.762 17.0923 26.6591 17.0787C26.6246 16.7454 26.5901 16.4087 26.5557 16.0754Z" fill="white"/>
</svg>
