<svg width="15" height="32" viewBox="0 0 15 32" fill="none" xmlns="http://www.w3.org/2000/svg">
<path d="M14.3008 5.92691H13.0085C12.6236 5.92691 12.3093 5.61265 12.3093 5.22777C12.3093 4.84289 12.6236 4.52863 13.0085 4.52863H14.3008C14.6857 4.52863 15 4.84289 15 5.22777C15 5.61265 14.6857 5.92691 14.3008 5.92691ZM14.3008 8.55046H13.0085C12.6236 8.55046 12.3093 8.2362 12.3093 7.85132C12.3093 7.46644 12.6236 7.15217 13.0085 7.15217H14.3008C14.6857 7.15217 15 7.46644 15 7.85132C15 8.2362 14.6857 8.55046 14.3008 8.55046ZM14.3008 11.174H13.0085C12.6236 11.174 12.3093 10.8597 12.3093 10.4749C12.3093 10.09 12.6236 9.77572 13.0085 9.77572H14.3008C14.6857 9.77572 15 10.09 15 10.4749C15 10.8562 14.6857 11.174 14.3008 11.174Z" fill="#306666"/>
<path d="M11.183 18.5786V3.38812C11.183 1.55552 9.69293 0.0654297 7.86033 0.0654297C6.02773 0.0654297 4.53764 1.55552 4.53764 3.38812V18.5786C2.38372 19.7579 0.921875 22.046 0.921875 24.6696C0.921875 28.4972 4.03624 31.608 7.86033 31.608C11.6844 31.608 14.7988 28.4937 14.7988 24.6696C14.7988 22.046 13.3334 19.7579 11.183 18.5786ZM7.8568 30.1497C4.83425 30.1497 2.37312 27.6886 2.37312 24.6661C2.37312 22.8899 3.22057 21.3116 4.53411 20.3088C4.97196 19.9733 5.46277 19.7014 5.98889 19.5108V3.38812C5.98889 2.35706 6.82574 1.52021 7.8568 1.52021C8.88786 1.52021 9.72471 2.35706 9.72471 3.38812V19.5108C10.2508 19.7014 10.7416 19.9733 11.1795 20.3088C12.4895 21.3116 13.3405 22.8899 13.3405 24.6661C13.3405 27.6921 10.8829 30.1497 7.8568 30.1497Z" fill="#306666"/>
<path d="M4.92603 24.8214C4.92603 25.2077 5.0021 25.5901 5.14992 25.947C5.29774 26.3039 5.5144 26.6281 5.78752 26.9012C6.06065 27.1744 6.3849 27.391 6.74176 27.5389C7.09862 27.6867 7.4811 27.7627 7.86737 27.7627C8.25363 27.7627 8.63611 27.6867 8.99297 27.5389C9.34983 27.391 9.67408 27.1744 9.94721 26.9012C10.2203 26.6281 10.437 26.3039 10.5848 25.947C10.7326 25.5901 10.8087 25.2077 10.8087 24.8214C10.8087 24.0413 10.4988 23.2932 9.94721 22.7416C9.3956 22.19 8.64746 21.8801 7.86737 21.8801C7.08727 21.8801 6.33913 22.19 5.78752 22.7416C5.23592 23.2932 4.92603 24.0413 4.92603 24.8214Z" fill="#4CA6A7"/>
<path d="M11.5361 24.8461C11.2007 24.7826 10.8758 24.9768 10.7699 25.2946C10.5439 26.6929 9.32925 27.7628 7.86741 27.7628C6.24314 27.7628 4.92607 26.4457 4.92607 24.8214C4.92607 23.1972 6.24314 21.8801 7.86741 21.8801C8.10399 21.8801 8.3335 21.9083 8.55242 21.9613C8.55596 21.9331 8.55949 21.9048 8.55949 21.8801V5.09008C8.55949 4.71933 8.25582 4.41919 7.88859 4.41919C7.51784 4.41919 7.2177 4.72286 7.2177 5.09008V20.6301C7.18592 20.6301 7.15061 20.6336 7.11883 20.6407C5.38863 20.962 4.0539 22.2862 3.71846 24.0128C3.27002 26.3151 4.7813 28.5537 7.08352 28.9986C7.35541 29.0516 7.6273 29.0763 7.89566 29.0763C9.89068 29.0763 11.6774 27.6639 12.0693 25.6336C12.1364 25.2699 11.8998 24.9168 11.5361 24.8461Z" fill="#306666"/>
</svg>
